<?xml version="1.0" encoding="iso-8859-1"?>
<!-- Generator: Adobe Illustrator 16.0.0, SVG Export Plug-In . SVG Version: 6.00 Build 0)  -->
<!DOCTYPE svg PUBLIC "-//W3C//DTD SVG 1.1//EN" "http://www.w3.org/Graphics/SVG/1.1/DTD/svg11.dtd">
<svg version="1.1" id="Capa_1" xmlns="http://www.w3.org/2000/svg" xmlns:xlink="http://www.w3.org/1999/xlink" x="0px" y="0px"
	 width="553.147px" height="553.146px" viewBox="0 0 553.147 553.146" style="enable-background:new 0 0 553.147 553.146;"
	 xml:space="preserve">
<g>
	<path d="M373.572,196.807c0,0,11.953,32.876,11.351,38.25c0,0-47.812-95.032-215.75-49.61
		c-16.333-12.947,5.575-50.796,6.378-69.127C176.345,97.997,192.286-20.74,83.11,3.166c0,0-9.266,3.433-7.468,12.106
		c1.798,8.673,19.278,4.188,24.652,7.019c5.375,2.831,41.989,6.579,36.013,79.483c-5.977,72.914-13.741,72.312-4.781,117.141
		c0,0-19.125,21.516-12.546,46.617c7.172,36.452,47.812,46.914,4.484,100.999c0,0,2.391,88.75,21.516,108.171
		c11.36,9.859,22.109-1.491,22.711-4.781c0.603-3.289,2.391-8.97-6.273-17.327c0,0-5.977-33.172-4.485-43.93
		c0,0,51.398,95.328,82.477,93.53c0,0,22.415-3.289,6.875-24.499c-15.539-21.209-51.991-48.108-43.031-66.641
		c8.97-18.532,41.836-58.274,52.001-77.695c2.983-19.422,12.25-13.445,20.024-9.267c0,0,53.493,39.149,53.79,53.187
		c0.297,14.048,4.686,48.215,7.469,64.547c2.782,16.333,8.367,68.927,23.906,90.844c15.539,21.918,19.125,20.723,27.894,20.32
		c8.769-0.401,18.724-4.379,18.724-13.55c-0.402-17.136-28.688-9.562-28.688-39.847l2.391-38.25c0,0,31.078,67.731,67.73,67.731
		c0,0,13.942,0,13.942-15.539c-0.401-6.972-14.745-11.953-17.528-11.552c0,0-18.13-5.775-49.208-99.612
		c0,0,43.031-32.876,44.829-51.398c11.351-16.142,44.227-52.594,35.859-119.532c0,0,0-32.876-12.556-37.657
		c0,0-14.937,7.172-17.93,23.906c0,0-21.516,6.579-41.836-2.391L373.572,196.807z"/>
</g>
<g>
</g>
<g>
</g>
<g>
</g>
<g>
</g>
<g>
</g>
<g>
</g>
<g>
</g>
<g>
</g>
<g>
</g>
<g>
</g>
<g>
</g>
<g>
</g>
<g>
</g>
<g>
</g>
<g>
</g>
</svg>
