<?xml version="1.0" encoding="iso-8859-1"?>
<!-- Generator: Adobe Illustrator 16.0.0, SVG Export Plug-In . SVG Version: 6.00 Build 0)  -->
<!DOCTYPE svg PUBLIC "-//W3C//DTD SVG 1.1//EN" "http://www.w3.org/Graphics/SVG/1.1/DTD/svg11.dtd">
<svg version="1.1" id="Capa_1" xmlns="http://www.w3.org/2000/svg" xmlns:xlink="http://www.w3.org/1999/xlink" x="0px" y="0px"
	 width="541.207px" height="541.207px" viewBox="0 0 541.207 541.207" style="enable-background:new 0 0 541.207 541.207;"
	 xml:space="preserve">
<g>
	<path d="M4.395,493.663c-1.664,5.011,1.147,9.036,6.426,9.036h38.327c5.278,0,9.629-4.59,6.684-8.97
		c-2.831-4.217-8.405-8.635-19.431-10.155c-11.16-39.847,12-48.128,48.606-68.534c-0.793,18.331,19.918,23.906,39.847,27.894
		c19.928,3.987,30.916,18.351,33.469,33.469c3.49,20.617,21.516,15.94,30.284,15.94c8.769,0,12.078-37.112,0-45.422
		c-6.378-4.379-54.19-4.781-66.938-40.641c-12.747-35.859,24.7-57.375,36.653-58.168c11.953-0.794,90.05,58.168,147.426,23.906
		c16.017-7.756,15.94,39.445,9.16,49.409c-6.77,9.964-2.132,23.906,4.312,35.859c6.445,11.953-0.324,48.605,4.055,51.398
		c3.29,2.094,38.767,1.042,56.189,0.392c5.278-0.2,8.74-4.714,6.005-9.228c-3.968-6.551-12.039-13.885-27.932-11.083
		c-21.516-5.986-8.769-62.567-7.172-73.727c1.597-11.16,19.919-52.594,19.919-62.156s6.378,17.978,73.315-32.054
		c29.481-11.771,33.469,8.94,41.435,13.722c6.272,3.759,33.249,8.014,45.249,2.286c4.763-2.276,2.133-9.371-1.922-12.757
		c-24.298-20.253-36.806-51.981-51.293-38.938c-15.94,14.344-77.294,27.091-100.406,6.378
		c-12.747-11.159,36.653-112.359,43.825-115.543c7.172-3.185,108.372-1.597,115.544-44.227c7.172-42.63,11.953-60.167-21.516-54.583
		c-62.157,5.575-62.157-48.606-137.863-35.065c0,0-29.481-17.528-43.825-7.966c-10.509,7.009-28.305,32.847-37.055,46.158
		c-2.906,4.408-1.453,10.136,3.146,12.747l33.908,19.191c0,0,11.16,38.25-6.378,61.363c-17.537,23.113-81.282,75.707-192.847,57.375
		c0,0-38.25-3.184-55.778,7.172c0,0-58.168-11.16-70.925-106.383c0,0-33.469,75.505,47.019,132.077c0,0-17.93,22.616-11.551,65.647
		c6.378,43.031-10.165,65.895-25.302,74.654C2.482,412.582,30.127,416.359,4.395,493.663z"/>
</g>
<g>
</g>
<g>
</g>
<g>
</g>
<g>
</g>
<g>
</g>
<g>
</g>
<g>
</g>
<g>
</g>
<g>
</g>
<g>
</g>
<g>
</g>
<g>
</g>
<g>
</g>
<g>
</g>
<g>
</g>
</svg>
